<svg width="471" height="325" viewBox="0 0 471 325" fill="none" xmlns="http://www.w3.org/2000/svg">
<circle cx="46" cy="35" r="34.5" stroke="white" stroke-opacity="0.5" stroke-dasharray="10 10"/>
<rect x="414.13" y="48.7678" width="16.069" height="16.069" rx="1.75" transform="rotate(45 414.13 48.7678)" stroke="white" stroke-width="2.5"/>
<circle cx="366" cy="96" r="9.75" stroke="white" stroke-width="2.5"/>
<circle cx="441.5" cy="98.5" r="3" stroke="white" stroke-width="3"/>
<path d="M1 81.4561L470.048 207.137" stroke="white" stroke-dasharray="10 10"/>
<path d="M231.182 165.68C233.557 163.115 237.613 163.115 239.988 165.68L339.949 273.658C343.505 277.499 340.781 283.734 335.546 283.734H135.624C130.39 283.734 127.665 277.499 131.221 273.658L231.182 165.68Z" fill="#E91E63"/>
<path d="M231.182 165.68C233.557 163.115 237.613 163.115 239.988 165.68L339.949 273.658C343.505 277.499 340.781 283.734 335.546 283.734H135.624C130.39 283.734 127.665 277.499 131.221 273.658L231.182 165.68Z" fill="url(#paint0_radial)" fill-opacity="0.4"/>
<circle r="33.6109" transform="matrix(-1 0 0 1 400.611 143.611)" fill="#FFF3E0"/>
<circle r="33.6109" transform="matrix(-1 0 0 1 400.611 143.611)" fill="url(#paint1_radial)"/>
<circle cx="335" cy="128" r="25" fill="#FFC107"/>
<circle r="25" transform="matrix(-1 0 0 1 335 128)" fill="url(#paint2_radial)"/>
<defs>
<radialGradient id="paint0_radial" cx="0" cy="0" r="1" gradientUnits="userSpaceOnUse" gradientTransform="translate(275.489 224.503) rotate(111.721) scale(107.823 172.889)">
<stop stop-color="#F7CCF8"/>
<stop offset="1" stop-color="#6F0B4D" stop-opacity="0"/>
</radialGradient>
<radialGradient id="paint1_radial" cx="0" cy="0" r="1" gradientUnits="userSpaceOnUse" gradientTransform="translate(20.4302 16.8054) rotate(59.257) scale(58.6599 90.9107)">
<stop stop-color="#E8FBE8"/>
<stop offset="1" stop-color="#4ED011" stop-opacity="0"/>
</radialGradient>
<radialGradient id="paint2_radial" cx="0" cy="0" r="1" gradientUnits="userSpaceOnUse" gradientTransform="translate(15.1961 12.5) rotate(59.257) scale(43.6316 67.62)">
<stop stop-color="#FBFFDF"/>
<stop offset="1" stop-color="#F0C017" stop-opacity="0"/>
</radialGradient>
</defs>
</svg>
