<svg width="376" height="358" viewBox="0 0 376 358" fill="none" xmlns="http://www.w3.org/2000/svg">
<path d="M175.383 50.8464L176.378 50.7478L175.383 50.8464ZM375 229.144H374H375ZM298.196 262.607L299.174 262.813L298.196 262.607ZM351.9 357.763C351.479 358.12 350.848 358.068 350.491 357.647L344.672 350.781C344.315 350.359 344.367 349.728 344.788 349.371C345.21 349.014 345.841 349.066 346.198 349.488L351.37 355.591L357.473 350.418C357.895 350.061 358.526 350.113 358.883 350.535C359.24 350.956 359.188 351.587 358.766 351.944L351.9 357.763ZM350.257 356.918C350.328 356.057 350.394 355.201 350.455 354.35L352.45 354.493C352.389 355.351 352.322 356.214 352.25 357.082L350.257 356.918ZM350.76 349.307C350.845 347.587 350.909 345.889 350.952 344.214L352.951 344.266C352.908 345.957 352.843 347.67 352.758 349.405L350.76 349.307ZM351.023 339.174C351.026 337.454 351.007 335.759 350.968 334.088L352.968 334.041C353.007 335.729 353.026 337.441 353.023 339.178L351.023 339.174ZM350.782 329.017C350.696 327.314 350.589 325.639 350.461 323.991L352.455 323.835C352.584 325.502 352.693 327.196 352.779 328.917L350.782 329.017ZM349.992 318.93C349.808 317.22 349.601 315.541 349.372 313.894L351.353 313.619C351.585 315.286 351.794 316.986 351.981 318.717L349.992 318.93ZM348.597 308.904C348.306 307.219 347.993 305.571 347.658 303.959L349.616 303.552C349.956 305.187 350.273 306.857 350.568 308.564L348.597 308.904ZM346.534 299.009C346.12 297.334 345.683 295.703 345.224 294.115L347.145 293.56C347.612 295.173 348.056 296.83 348.475 298.53L346.534 299.009ZM343.719 289.29C343.171 287.656 342.598 286.073 342.005 284.543L343.87 283.82C344.475 285.38 345.057 286.991 345.615 288.654L343.719 289.29ZM340.068 279.887C339.363 278.309 338.636 276.794 337.89 275.344L339.669 274.429C340.432 275.913 341.175 277.461 341.894 279.072L340.068 279.887ZM335.453 270.942C334.566 269.453 333.659 268.046 332.738 266.722L334.38 265.58C335.329 266.944 336.261 268.39 337.172 269.919L335.453 270.942ZM329.725 262.743C328.61 261.392 327.483 260.158 326.353 259.041L327.76 257.619C328.94 258.786 330.112 260.07 331.267 261.469L329.725 262.743ZM322.622 255.772C321.224 254.702 319.839 253.812 318.483 253.102L319.411 251.331C320.877 252.099 322.358 253.051 323.838 254.184L322.622 255.772ZM313.974 251.364C312.313 250.964 310.742 250.867 309.289 251.058L309.028 249.075C310.754 248.848 312.574 248.969 314.442 249.419L313.974 251.364ZM305.002 252.675C303.804 253.488 302.722 254.603 301.795 256.04L300.114 254.956C301.172 253.316 302.437 251.999 303.878 251.021L305.002 252.675ZM299.796 260.421C299.56 261.171 299.352 261.968 299.174 262.813L297.217 262.401C297.407 261.497 297.631 260.637 297.888 259.821L299.796 260.421ZM299.174 262.813C299.007 263.605 298.894 264.379 298.832 265.135L296.839 264.971C296.908 264.129 297.033 263.272 297.217 262.401L299.174 262.813ZM299.101 269.731C299.418 271.252 299.961 272.686 300.704 274.025L298.955 274.995C298.118 273.486 297.503 271.864 297.143 270.139L299.101 269.731ZM303.486 277.731C304.541 278.814 305.755 279.806 307.105 280.698L306.002 282.367C304.543 281.403 303.217 280.321 302.053 279.127L303.486 277.731ZM311.269 282.944C312.685 283.563 314.19 284.092 315.767 284.525L315.237 286.454C313.572 285.996 311.977 285.436 310.468 284.777L311.269 282.944ZM320.448 285.497C322 285.721 323.596 285.86 325.223 285.909L325.163 287.908C323.462 287.857 321.79 287.712 320.162 287.477L320.448 285.497ZM330.031 285.793C331.606 285.67 333.195 285.464 334.788 285.171L335.15 287.138C333.489 287.444 331.83 287.659 330.186 287.787L330.031 285.793ZM339.46 284.057C340.981 283.609 342.495 283.078 343.992 282.461L344.755 284.31C343.192 284.954 341.612 285.509 340.024 285.976L339.46 284.057ZM348.333 280.395C349.721 279.641 351.085 278.804 352.416 277.884L353.554 279.529C352.163 280.491 350.738 281.364 349.287 282.152L348.333 280.395ZM356.206 274.947C357.397 273.917 358.551 272.808 359.66 271.619L361.122 272.983C359.964 274.225 358.759 275.383 357.514 276.46L356.206 274.947ZM362.744 267.941C363.689 266.688 364.589 265.363 365.439 263.963L367.148 265.001C366.264 266.458 365.326 267.838 364.341 269.145L362.744 267.941ZM367.735 259.737C368.418 258.328 369.055 256.854 369.64 255.315L371.509 256.025C370.904 257.618 370.244 259.146 369.535 260.609L367.735 259.737ZM371.166 250.739C371.604 249.231 371.996 247.667 372.338 246.047L374.295 246.461C373.942 248.128 373.539 249.74 373.087 251.296L371.166 250.739ZM373.18 241.262C373.402 239.702 373.581 238.095 373.714 236.44L375.707 236.6C375.571 238.295 375.388 239.942 375.16 241.543L373.18 241.262ZM373.968 231.626C373.989 230.81 374 229.982 374 229.144H376C376 229.999 375.989 230.844 375.967 231.678L373.968 231.626ZM374 229.144C374 228.285 373.98 227.437 373.94 226.599L375.937 226.504C375.979 227.373 376 228.253 376 229.144H374ZM373.464 221.704C373.216 220.027 372.883 218.397 372.47 216.81L374.406 216.306C374.837 217.963 375.184 219.664 375.443 221.411L373.464 221.704ZM370.963 212.096C370.373 210.548 369.701 209.042 368.952 207.574L370.733 206.665C371.514 208.195 372.215 209.767 372.832 211.384L370.963 212.096ZM366.465 203.272C365.573 201.894 364.608 200.55 363.574 199.239L365.144 198.001C366.215 199.358 367.216 200.752 368.144 202.185L366.465 203.272ZM360.325 195.461C359.198 194.253 358.01 193.072 356.764 191.917L358.124 190.451C359.403 191.636 360.625 192.851 361.788 194.097L360.325 195.461ZM353.007 188.65C351.731 187.607 350.408 186.585 349.04 185.582L350.223 183.969C351.617 184.991 352.968 186.035 354.273 187.102L353.007 188.65ZM344.889 182.686C343.521 181.776 342.117 180.881 340.677 180L341.721 178.294C343.181 179.187 344.607 180.095 345.997 181.021L344.889 182.686ZM336.326 177.436C334.88 176.615 333.405 175.805 331.903 175.005L332.843 173.24C334.36 174.047 335.851 174.866 337.314 175.697L336.326 177.436ZM327.429 172.69C325.931 171.936 324.409 171.189 322.867 170.45L323.732 168.646C325.285 169.391 326.818 170.143 328.329 170.904L327.429 172.69ZM318.317 168.313C316.79 167.61 315.246 166.913 313.686 166.219L314.499 164.392C316.066 165.088 317.618 165.789 319.153 166.496L318.317 168.313ZM309.067 164.194C307.524 163.527 305.967 162.862 304.4 162.199L305.179 160.357C306.751 161.022 308.312 161.689 309.861 162.359L309.067 164.194ZM299.735 160.241C298.181 159.594 296.617 158.947 295.047 158.3L295.809 156.451C297.381 157.099 298.947 157.747 300.504 158.395L299.735 160.241ZM290.359 156.374C288.8 155.734 287.232 155.092 285.664 154.449L286.422 152.599C287.992 153.243 289.556 153.883 291.118 154.523L290.359 156.374ZM280.97 152.52C279.409 151.876 277.845 151.229 276.28 150.577L277.049 148.731C278.611 149.381 280.173 150.028 281.733 150.671L280.97 152.52ZM271.597 148.613C270.038 147.955 268.48 147.29 266.924 146.62L267.715 144.783C269.267 145.452 270.821 146.114 272.376 146.771L271.597 148.613ZM262.267 144.59C260.716 143.905 259.168 143.214 257.625 142.513L258.451 140.692C259.987 141.389 261.529 142.078 263.074 142.76L262.267 144.59ZM253.011 140.386C251.472 139.664 249.939 138.934 248.416 138.192L249.29 136.394C250.805 137.13 252.329 137.857 253.859 138.575L253.011 140.386ZM243.863 135.934C242.344 135.164 240.834 134.382 239.336 133.589L240.273 131.821C241.759 132.609 243.258 133.385 244.767 134.15L243.863 135.934ZM234.87 131.164C233.378 130.333 231.9 129.489 230.436 128.629L231.449 126.905C232.899 127.756 234.364 128.593 235.843 129.416L234.87 131.164ZM226.088 126.001C224.635 125.097 223.199 124.176 221.782 123.237L222.887 121.57C224.287 122.498 225.707 123.408 227.145 124.303L226.088 126.001ZM217.582 120.361C216.185 119.372 214.81 118.363 213.458 117.333L214.669 115.742C216.002 116.757 217.359 117.752 218.739 118.729L217.582 120.361ZM209.457 114.168C208.135 113.082 206.84 111.973 205.572 110.84L206.904 109.348C208.151 110.462 209.426 111.554 210.727 112.624L209.457 114.168ZM201.835 107.351C200.611 106.157 199.419 104.938 198.259 103.692L199.722 102.329C200.86 103.551 202.031 104.748 203.232 105.92L201.835 107.351ZM194.865 99.8582C193.765 98.5505 192.701 97.2147 191.674 95.8495L193.272 94.6469C194.277 95.9827 195.319 97.2904 196.396 98.5714L194.865 99.8582ZM188.71 91.674C187.762 90.2546 186.853 88.8048 185.984 87.3235L187.709 86.3117C188.558 87.7588 189.446 89.1755 190.373 90.5631L188.71 91.674ZM183.528 82.8353C182.756 81.3192 182.025 79.7717 181.338 78.1916L183.172 77.3936C183.843 78.9365 184.556 80.4475 185.31 81.928L183.528 82.8353ZM179.437 73.4368C178.856 71.847 178.317 70.2258 177.822 68.5724L179.738 67.9985C180.222 69.6141 180.748 71.1977 181.315 72.7504L179.437 73.4368ZM176.494 63.6204C176.104 61.9818 175.756 60.313 175.451 58.6132L177.419 58.2594C177.718 59.9231 178.059 61.5557 178.44 63.158L176.494 63.6204ZM174.679 53.5464C174.571 52.6869 174.474 51.8198 174.388 50.945L176.378 50.7478C176.463 51.6055 176.558 52.4553 176.664 53.2975L174.679 53.5464ZM174.388 50.945C174.3 50.0589 174.204 49.1872 174.099 48.3296L176.085 48.0879C176.191 48.9607 176.289 49.8472 176.378 50.7478L174.388 50.945ZM173.375 43.3531C173.079 41.6204 172.746 39.9526 172.378 38.3477L174.327 37.8998C174.704 39.5433 175.045 41.2484 175.347 43.0165L173.375 43.3531ZM171.108 33.5302C170.607 31.8571 170.062 30.2629 169.475 28.7447L171.34 28.023C171.947 29.5921 172.509 31.2358 173.024 32.9563L171.108 33.5302ZM167.447 24.1298C166.682 22.5885 165.864 21.1414 164.999 19.7844L166.685 18.7089C167.59 20.1282 168.442 21.6375 169.239 23.2399L167.447 24.1298ZM162.083 15.7641C161.005 14.4559 159.869 13.254 158.679 12.1532L160.038 10.6853C161.294 11.8481 162.492 13.1154 163.627 14.4917L162.083 15.7641ZM154.804 9.04362C153.433 8.09555 152.005 7.25268 150.523 6.50935L151.42 4.72175C152.983 5.50597 154.492 6.39628 155.941 7.39878L154.804 9.04362ZM145.936 4.57703C144.383 4.03744 142.781 3.58778 141.134 3.22314L141.566 1.27043C143.285 1.65092 144.962 2.12133 146.592 2.6878L145.936 4.57703ZM136.199 2.39535C134.564 2.20309 132.894 2.08237 131.189 2.02902L131.252 0.0300033C133.009 0.0850235 134.738 0.20967 136.432 0.409055L136.199 2.39535ZM126.146 2.05976C124.488 2.12849 122.803 2.25301 121.095 2.42973L120.889 0.440345C122.636 0.259682 124.361 0.132022 126.063 0.0614791L126.146 2.05976ZM116.066 3.08723C114.426 3.34437 112.768 3.64419 111.095 3.98366L110.697 2.02358C112.398 1.67857 114.085 1.3734 115.757 1.11136L116.066 3.08723ZM106.143 5.09038C104.512 5.48739 102.868 5.91804 101.215 6.37962L100.678 4.4533C102.351 3.98607 104.016 3.54971 105.67 3.1471L106.143 5.09038ZM96.3349 7.82142C94.7312 8.32021 93.1206 8.845 91.5048 9.39336L90.862 7.49945C92.4931 6.94591 94.12 6.41581 95.7409 5.91167L96.3349 7.82142ZM86.6965 11.0874C85.107 11.6674 83.5144 12.2675 81.9204 12.8856L81.1973 11.0209C82.8031 10.3982 84.4082 9.79335 86.011 9.20857L86.6965 11.0874ZM77.1914 14.7689C75.621 15.4102 74.0509 16.0666 72.483 16.736L71.6977 14.8967C73.2748 14.2233 74.8546 13.5628 76.4353 12.9173L77.1914 14.7689ZM67.8041 18.7734C66.2492 19.4632 64.698 20.1637 63.1522 20.8727L62.3184 19.0548C63.8713 18.3425 65.4301 17.6386 66.993 16.9452L67.8041 18.7734ZM58.5218 23.0279C56.9809 23.7552 55.4472 24.4888 53.9221 25.2266L53.0511 23.4263C54.5815 22.6859 56.121 21.9495 57.6681 21.2192L58.5218 23.0279ZM49.325 27.475C47.7883 28.2342 46.2626 28.9954 44.7495 29.7563L43.851 27.9695C45.3679 27.2067 46.8978 26.4434 48.439 25.6819L49.325 27.475ZM40.2034 32.0591C38.668 32.8421 37.1481 33.6222 35.6455 34.3968L34.7291 32.6191C36.2339 31.8434 37.7564 31.062 39.2947 30.2774L40.2034 32.0591ZM31.0945 36.7518C29.562 37.5474 28.0506 38.334 26.5625 39.1088L25.6389 37.3348C27.1271 36.56 28.6393 35.7729 30.1731 34.9767L31.0945 36.7518ZM22.0487 41.4578C20.4955 42.265 18.9719 43.0549 17.4811 43.8235L16.5645 42.0459C18.0527 41.2786 19.5742 40.4898 21.1264 39.6831L22.0487 41.4578ZM12.9071 46.165C11.332 46.9642 9.80042 47.7328 8.31631 48.4653L7.43109 46.6719C8.9072 45.9433 10.4321 45.1782 12.0021 44.3815L12.9071 46.165ZM3.69012 50.701C2.91531 51.0662 2.15662 51.4183 1.4147 51.7564L0.585297 49.9365C1.31866 49.6022 2.06964 49.2537 2.83755 48.8919L3.69012 50.701Z" fill="white"/>
</svg>
